<svg xmlns="http://www.w3.org/2000/svg" viewBox="0 0 64 64">
  <defs>
    <linearGradient id="bg" x1="0" y1="0" x2="1" y2="1">
      <stop offset="0%" stop-color="#0f172a"/>
      <stop offset="100%" stop-color="#0f766e"/>
    </linearGradient>
  </defs>
  <rect x="4" y="4" width="56" height="56" rx="14" fill="url(#bg)"/>
  <circle cx="20" cy="20" r="5" fill="#34d399"/>
  <path d="M24 43c0-8 5-14 12-14 4 0 7 1 10 4l-4 4c-2-2-4-3-7-3-4 0-7 3-7 8s3 8 7 8c3 0 5-1 7-3l4 4c-3 3-6 4-10 4-7 0-12-6-12-14z" fill="#e2e8f0"/>
</svg>
